<?xml version="1.0" encoding="UTF-8" standalone="no"?>
<!-- Created with Inkscape (http://www.inkscape.org/) -->

<svg
   xmlns:dc="http://purl.org/dc/elements/1.1/"
   xmlns:cc="http://creativecommons.org/ns#"
   xmlns:rdf="http://www.w3.org/1999/02/22-rdf-syntax-ns#"
   xmlns:svg="http://www.w3.org/2000/svg"
   xmlns="http://www.w3.org/2000/svg"
   xmlns:sodipodi="http://sodipodi.sourceforge.net/DTD/sodipodi-0.dtd"
   xmlns:inkscape="http://www.inkscape.org/namespaces/inkscape"
   version="1.1"
   id="svg3713"
   width="464"
   height="398"
   viewBox="0 0 464 398"
   sodipodi:docname="cl_logo.svg"
   inkscape:version="0.92.4 (5da689c313, 2019-01-14)">
  <metadata
     id="metadata3719">
    <rdf:RDF>
      <cc:Work
         rdf:about="">
        <dc:format>image/svg+xml</dc:format>
        <dc:type
           rdf:resource="http://purl.org/dc/dcmitype/StillImage" />
        <dc:title></dc:title>
      </cc:Work>
    </rdf:RDF>
  </metadata>
  <defs
     id="defs3717">
    <inkscape:path-effect
       effect="bspline"
       id="path-effect4558"
       is_visible="true"
       weight="33.333333"
       steps="2"
       helper_size="0"
       apply_no_weight="true"
       apply_with_weight="true"
       only_selected="false" />
    <inkscape:path-effect
       effect="bspline"
       id="path-effect3729"
       is_visible="true"
       weight="33.333333"
       steps="2"
       helper_size="0"
       apply_no_weight="true"
       apply_with_weight="true"
       only_selected="false" />
    <inkscape:path-effect
       effect="bspline"
       id="path-effect3725"
       is_visible="true"
       weight="33.333333"
       steps="2"
       helper_size="0"
       apply_no_weight="true"
       apply_with_weight="true"
       only_selected="false" />
  </defs>
  <sodipodi:namedview
     pagecolor="#ffffff"
     bordercolor="#666666"
     borderopacity="1"
     objecttolerance="10"
     gridtolerance="10"
     guidetolerance="10"
     inkscape:pageopacity="0"
     inkscape:pageshadow="2"
     inkscape:window-width="1411"
     inkscape:window-height="1018"
     id="namedview3715"
     showgrid="false"
     inkscape:zoom="0.94340126"
     inkscape:cx="176.19975"
     inkscape:cy="188.85896"
     inkscape:window-x="658"
     inkscape:window-y="18"
     inkscape:window-maximized="0"
     inkscape:current-layer="svg3713" />
  <path
     style="fill:none;stroke:#000000;stroke-width:1px;stroke-linecap:butt;stroke-linejoin:miter;stroke-opacity:1"
     d="m 100.93765,31.54253 c -6.24593,1.186517 -14.615673,3.934791 -20.987105,7.682454 -6.371432,3.747664 -10.743059,8.494001 -14.991078,15.990331 -4.24802,7.49633 -8.369527,17.737652 -11.867571,27.856894 -3.498044,10.119242 -6.370902,20.111791 -8.432296,31.168111 -2.061394,11.05633 -3.31046,23.17227 -3.747783,36.22559 -0.437323,13.05331 -0.0625,27.04662 0.874418,39.66414 0.93692,12.61753 2.435873,23.85968 4.559617,35.54036 2.123745,11.68068 4.87181,23.79715 7.994933,34.22847 3.123123,10.43132 6.620714,19.1753 11.242994,28.41989 4.622279,9.24459 10.368333,18.9879 16.052398,27.23292 5.684065,8.24503 11.305358,14.99058 17.256214,20.27219 5.950859,5.28161 12.412979,9.20957 20.282979,12.70731 7.87001,3.49775 17.23954,6.62092 27.10823,7.99495 9.86868,1.37403 20.23783,0.99925 28.89837,-0.554 8.66053,-1.55325 15.69934,-4.3185 22.00728,-8.62806 6.30794,-4.30956 11.93037,-10.18189 16.48953,-16.42748 4.55916,-6.24559 8.05757,-12.86758 11.24279,-19.11312 3.18522,-6.24555 6.05893,-12.11793 7.7813,-15.56789 1.72236,-3.44997 2.40011,-4.66993 3.21175,-5.23148 0.81163,-0.56155 1.81205,-0.56155 2.62313,0.24936 0.81108,0.81091 1.43631,2.43651 2.62336,6.62242 1.18706,4.18591 2.93538,10.92945 5.80877,18.11299 2.8734,7.18354 6.87048,14.80297 12.67968,21.54911 5.80921,6.74615 13.42905,12.61718 20.36622,16.34989 6.93718,3.73272 13.4256,5.38663 21.60753,6.44837 8.18194,1.06174 18.17676,1.56147 27.48311,0.81188 9.30636,-0.74959 17.92677,-2.74853 26.35842,-6.12129 8.43164,-3.37276 16.67759,-8.12043 26.79527,-16.67683 10.11768,-8.5564 22.11188,-20.92541 30.85594,-33.04241 8.74407,-12.11699 14.24107,-23.98551 16.61484,-33.91041 2.37377,-9.9249 1.62308,-17.9323 -0.3754,-23.30328 -1.99848,-5.37099 -5.2468,-8.11957 -10.25011,-9.11827 -5.0033,-0.9987 -11.73516,-0.25071 -18.81235,2.53156 -7.0772,2.78227 -14.6591,7.71051 -22.06173,13.24381 -7.40263,5.5333 -14.83348,11.83063 -21.95448,17.32758 -7.121,5.49696 -13.99067,10.24328 -19.42506,13.42906 -5.43439,3.18579 -9.43122,4.8095 -13.36695,5.55927 -3.93573,0.74977 -7.80713,0.62488 -11.55564,-0.81201 -3.7485,-1.4369 -7.37032,-4.18449 -10.24374,-8.05746 -2.87342,-3.87298 -4.997,-8.86963 -6.5584,-17.92601 -1.5614,-9.05639 -2.56087,-22.17443 -3.62268,-34.10404 -1.0618,-11.92962 -2.18618,-22.67363 -2.87318,-34.53948 -0.687,-11.86586 -0.93691,-24.86117 -1.43657,-42.47426 -0.49966,-17.61309 -1.24925,-39.8508 -2.24865,-54.341458 -0.9994,-14.490662 -2.24867,-21.236718 -3.60481,-26.925958 -1.35614,-5.68924 -2.89124,-10.550396 -4.8898,-14.859749 -1.99857,-4.309353 -4.49733,-8.182428 -7.93212,-10.743059 -3.43479,-2.560631 -7.80732,-3.809925 -11.99222,-3.560309 -4.1849,0.249616 -8.18178,1.998252 -11.74264,4.559398 -3.56086,2.561146 -6.68296,5.93301 -9.86908,10.243543 -3.18611,4.310533 -6.43308,9.555624 -8.54587,14.805015 -2.1128,5.249392 -3.13442,10.740589 -3.94654,17.362307 -0.81212,6.621719 -1.4366,14.4901 -1.87386,22.1733 -0.43727,7.68321 -0.68708,15.17748 -0.56218,21.79878 0.1249,6.62129 0.62451,12.36689 1.12425,19.55055 0.49974,7.18365 0.99935,15.80187 1.81137,24.5469 0.81203,8.74503 1.9362,17.6135 2.31118,22.67271 0.37498,5.05922 2.5e-4,6.30831 -0.56193,7.30814 -0.56218,0.99982 -1.311,1.74864 -2.12348,2.24882 -0.81248,0.50019 -1.68576,0.7497 -2.89429,0.34122 -1.20853,-0.40848 -2.91486,-1.58978 -4.85781,-2.27765 -1.94296,-0.68787 -4.17754,-0.93616 -5.86405,-0.74904 -1.6865,0.18713 -2.81035,0.81149 -3.81035,1.68631 -1,0.87482 -1.87353,1.99793 -2.68617,4.06058 -0.81264,2.06264 -1.56144,5.0578 -2.6236,11.05583 -1.06216,5.99802 -2.43576,14.98884 -4.37207,22.98422 -1.93631,7.99538 -4.43443,14.99011 -7.05782,20.3621 -2.62339,5.37199 -5.37119,9.11899 -8.527,12.34468 -3.15582,3.22569 -6.83762,6.01878 -10.77359,7.27196 -3.93598,1.25319 -8.43144,0.99631 -12.42962,-0.12814 -3.99818,-1.12444 -7.62012,-3.12275 -11.43054,-5.80878 -3.81043,-2.68603 -7.80754,-6.05859 -12.86704,-11.93013 -5.05949,-5.87153 -11.18051,-14.24108 -16.27753,-22.56058 -5.09702,-8.31951 -9.26903,-16.78996 -12.45446,-26.28391 -3.18542,-9.49395 -5.434116,-20.11279 -6.620793,-29.79402 -1.186678,-9.68123 -1.311608,-18.42636 -0.562074,-27.91989 0.749535,-9.49353 2.373697,-19.73825 4.872097,-28.98203 2.49841,-9.24378 5.87166,-17.4895 8.99477,-22.86081 3.12311,-5.3713 5.99673,-7.8701 8.99432,-9.49361 2.99759,-1.623522 6.12179,-2.373329 8.74419,-1.811363 2.6224,0.561963 4.74687,2.436493 7.02582,4.334293 2.27896,1.89779 4.59179,3.72371 6.68216,5.95154 2.09036,2.22782 3.78067,4.64255 6.17149,6.33412 2.39082,1.69157 5.35511,2.55616 8.4156,1.99376 3.06049,-0.56239 6.18421,-2.56158 8.55705,-5.87137 2.37284,-3.30978 3.99742,-7.9336 3.87244,-13.928626 -0.12497,-5.995023 -1.99929,-13.367314 -4.0604,-19.425647 -2.06111,-6.058332 -4.30991,-10.805801 -6.9648,-15.01594 -2.6549,-4.21014 -5.83965,-8.031841 -9.58718,-11.96675 -3.74753,-3.934908 -8.1199,-8.057428 -13.67871,-11.555154 -5.5588,-3.497725 -12.30451,-6.3709 -17.73854,-7.994956 -5.43403,-1.624056 -9.55615,-1.998794 -15.80207,-0.812277 z"
     id="path3723" />
  <path
     style="fill:#66adff;fill-opacity:1;stroke:none;stroke-width:1px;stroke-linecap:butt;stroke-linejoin:miter;stroke-opacity:1"
     d="m 96.548901,23.291807 c -5.741517,0.883107 -11.39482,2.82643 -16.165244,5.211513 -4.770423,2.385084 -8.656243,5.211135 -13.133608,10.294044 -4.477364,5.08291 -9.656233,12.58334 -13.719958,20.533922 -4.063725,7.950583 -7.06658,16.429229 -10.158524,27.118435 -3.091943,10.689206 -6.271475,23.583969 -8.126932,34.366429 -1.855456,10.78245 -2.384745,19.4275 -2.38784,31.26518 -0.0031,11.83767 0.532993,27.20554 1.771395,41.70484 1.238402,14.49931 3.178157,28.25393 5.91655,41.59267 2.738394,13.33873 6.271492,26.23454 11.836653,40.19167 5.565162,13.95713 13.16139,28.97293 20.051503,40.01479 6.890112,11.04186 13.073253,18.10831 20.405059,24.55674 7.331805,6.44844 15.811675,12.27835 23.496775,16.16499 7.68511,3.88664 14.57524,5.83001 22.9665,7.24324 8.39126,1.41323 18.2855,2.29665 28.00182,1.41324 9.71632,-0.88341 19.25714,-3.53364 26.85339,-6.80195 7.59625,-3.2683 13.25026,-7.15543 17.66636,-11.83672 4.41609,-4.68128 7.59671,-10.15902 10.51145,-14.92855 2.91473,-4.76953 5.56529,-8.83371 7.80754,-12.79183 2.24226,-3.95813 3.94029,-7.524 5.70695,-11.23398 0,0 11.03901,25.0008 11.03901,25.0008 4.62362,7.03632 9.24708,14.0724 15.63964,19.5876 6.39255,5.5152 14.83821,9.64818 24.81976,12.47475 9.98154,2.82657 21.64205,4.41664 32.06511,4.7699 10.42307,0.35325 19.61036,-0.53015 28.53152,-2.91512 8.92117,-2.38498 17.5788,-6.27208 26.14644,-11.74841 8.56764,-5.47633 17.04877,-12.54393 25.5281,-21.02334 8.47934,-8.47941 16.96037,-18.37396 23.76154,-28.97335 6.80117,-10.5994 11.92503,-21.90723 14.48641,-31.1817 2.56138,-9.27446 2.56138,-16.51852 1.50143,-22.25957 -1.05995,-5.74104 -3.18023,-9.9816 -6.18315,-13.42618 -3.00293,-3.44459 -6.88994,-6.09483 -11.48308,-7.33442 -4.59314,-1.23959 -10.24597,-1.05724 -15.02507,-0.2888 -4.77911,0.76844 -9.17732,2.23451 -13.50626,4.17805 -4.32894,1.94354 -8.74433,4.41616 -13.6918,8.30336 -4.94746,3.8872 -10.42263,9.18574 -14.48613,12.80765 -4.06351,3.62191 -6.713,5.56487 -11.30771,9.18762 -4.59472,3.62274 -11.12856,8.92046 -16.9589,12.71914 -5.83034,3.79867 -10.95279,6.09494 -15.47755,6.21963 -4.52475,0.12469 -8.72601,-2.06727 -12.17141,-5.95448 -3.4454,-3.8872 -6.27179,-9.53998 -7.95002,-17.3132 -1.67823,-7.77321 -2.20826,-17.66719 -2.99601,-28.97377 -0.78775,-11.30658 -1.86226,-24.37986 -2.56888,-43.01727 -0.70662,-18.63742 -1.05998,-43.01901 -1.94331,-63.42353 -0.88334,-20.40452 -2.29672,-36.835093 -4.77001,-49.642919 -2.47328,-12.807827 -6.00679,-21.994952 -9.98143,-28.08949 -3.97464,-6.094538 -8.39154,-9.09803 -13.60291,-10.423119 -5.21136,-1.325089 -11.2177,-0.971775 -16.25299,0.618099 -5.03529,1.589874 -9.09789,4.416029 -12.45496,7.066277 -3.35708,2.650248 -6.00632,5.122872 -8.30353,8.038403 -2.2972,2.915531 -4.23977,6.27087 -6.71378,13.074301 -2.47402,6.803432 -5.47628,17.046433 -7.15048,25.703747 -1.67419,8.657313 -2.03608,16.076031 -2.12443,25.705211 -0.0884,9.62918 0.0883,21.64071 0.70456,31.07942 0.61628,9.4387 1.68027,16.35465 2.82868,24.83519 1.14841,8.48054 2.38503,18.55014 3.62169,28.62009 0,0 -8.47996,-2.64999 -8.47996,-2.64999 -1.94332,0.35333 -3.8855,0.70646 -5.47586,1.32475 -1.59036,0.61829 -2.82628,1.50109 -3.97528,2.73831 -1.149,1.23722 -2.20802,2.82575 -3.62209,5.47706 -1.41407,2.65131 -3.17944,6.3586 -4.41641,10.42266 -1.23697,4.06406 -1.9434,8.47927 -2.65017,13.16155 -0.70676,4.68228 -1.41325,9.62766 -2.82669,15.28164 -1.41344,5.65398 -3.53295,12.01251 -6.53636,17.31296 -3.0034,5.30045 -6.88932,9.53963 -11.21915,11.91579 -4.32983,2.37615 -9.44996,2.92474 -14.57431,1.2461 -5.12436,-1.67863 -10.42315,-5.56441 -14.575,-9.62795 -4.15185,-4.06354 -7.15507,-8.30338 -10.15833,-12.71995 -3.00326,-4.41656 -6.00671,-9.01008 -9.76959,-15.82922 -3.76288,-6.81913 -8.4271,-16.14756 -11.60701,-26.39414 -3.17991,-10.24657 -4.94664,-21.55367 -5.5649,-32.85998 -0.61826,-11.3063 -0.0882,-22.61373 1.32513,-32.5067 1.41336,-9.89296 3.71022,-18.37369 5.7419,-24.38009 2.03167,-6.00639 3.79857,-9.5402 5.83011,-12.10138 2.03154,-2.56118 4.32897,-4.15171 6.97782,-4.15162 2.64885,1e-4 5.65367,1.59089 9.53983,4.85879 3.88615,3.26791 8.65672,8.21516 12.80876,11.0419 4.15204,2.82674 7.68535,3.53339 11.04186,3.00318 3.35651,-0.53021 6.53719,-2.29725 9.45145,-5.30003 2.91425,-3.00278 5.56523,-7.24434 7.15482,-13.07323 1.5896,-5.8289 2.11974,-13.250906 0.97147,-20.581745 -1.14826,-7.33084 -3.97532,-14.575172 -7.68509,-21.199728 -3.70976,-6.624556 -8.30341,-12.631628 -13.33824,-18.196445 -5.03483,-5.564817 -10.5116,-10.688254 -17.22467,-14.751487 -6.71307,-4.063232 -14.66298,-7.066531 -21.55293,-8.656617 -6.88995,-1.590085 -12.71952,-1.766739 -18.461039,-0.883631 z"
     id="path3727" />
  <path
     style="opacity:1;fill:#67adff;fill-opacity:1;stroke-width:0.74952918"
     d="m 307.98445,360.03229 c -16.09588,-1.41678 -27.73176,-5.97558 -38.6852,-15.15641 -11.24924,-9.42876 -18.44753,-21.10941 -23.94706,-38.85885 -1.69648,-5.47529 -4.01098,-10.83385 -4.49557,-12.23178 -1.10228,-3.17989 -2.46191,-4.77569 -4.28593,-3.6567 -0.72142,0.44258 -5.02687,8.02983 -9.56766,16.86057 -10.09031,19.62318 -12.93712,23.90678 -21.67486,32.61418 -7.77198,7.74499 -14.97095,11.8667 -25.53431,14.61946 -8.50929,2.21749 -24.51864,2.72857 -34.44624,1.09968 C 127.51118,352.39588 109.57481,343.98503 98.189423,333.20866 84.800319,320.53575 66.888747,291.05188 58.953796,268.6237 47.038065,234.94383 40.517533,185.13092 42.848852,145.59169 43.934838,127.17332 45.219001,118.02331 48.700508,103.89706 55.337364,76.967937 66.195837,52.417399 74.947312,44.55417 84.48897,35.980959 104.41161,29.96865 114.71355,32.553406 c 5.52746,1.386838 12.80493,4.429686 18.55494,7.758168 5.97971,3.461447 16.20123,12.945538 21.57098,20.014749 6.43695,8.47418 11.57053,21.349489 13.34151,33.461287 0.75544,5.166454 0.70673,6.75904 -0.33058,10.80807 -2.45082,9.56647 -9.37217,14.67965 -16.30247,12.04352 -0.95439,-0.36302 -4.69425,-3.5796 -8.31083,-7.14795 -11.24608,-11.096112 -15.14499,-12.668039 -22.69773,-9.15107 -6.88604,3.20651 -12.68422,12.28911 -17.52519,27.45248 -5.147437,16.12328 -7.128393,31.29541 -6.59299,50.49562 0.882132,31.63435 8.97518,54.7372 28.85843,82.38084 6.26975,8.71683 14.55985,17.26641 20.76973,21.41984 13.49601,9.02667 24.49715,8.68633 34.35321,-1.06279 9.73336,-9.62774 14.62794,-21.92446 19.65406,-49.37711 2.98084,-16.28137 4.14545,-19.99636 6.96658,-22.22265 1.59822,-1.26122 2.64777,-1.49228 5.20071,-1.14492 1.75913,0.23935 4.18772,0.94677 5.39686,1.57204 3.07909,1.59226 5.70216,1.41593 7.4904,-0.50352 1.8968,-2.03597 2.01026,-7.73075 0.43775,-21.96978 -5.56818,-50.41963 -4.62452,-96.763786 2.32396,-114.13226 4.31197,-10.778242 12.7034,-21.790743 20.03142,-26.288295 8.85654,-5.435666 18.98982,-3.718048 24.82414,4.207755 5.51228,7.488329 9.84755,22.921323 11.52359,41.022589 1.03678,11.197141 2.10524,35.391691 3.11142,70.455741 0.8523,29.7013 1.41008,38.98021 4.14515,68.95669 3.59074,39.35479 5.25145,46.3921 12.70737,53.84801 5.63502,5.63503 11.681,7.61813 19.47165,6.38675 8.96688,-1.41728 20.61261,-8.53549 42.73901,-26.12334 25.40715,-20.19566 36.7784,-26.27361 49.06425,-26.22491 8.70386,0.0345 13.26668,4.37622 15.09416,14.3627 3.23804,17.69468 -8.84664,43.6669 -31.49125,67.68049 -23.8157,25.25548 -42.77599,35.96247 -68.32669,38.58446 -8.52728,0.87506 -12.03045,0.8621 -22.78265,-0.0843 z"
     id="path4536"
     inkscape:connector-curvature="0"
     sodipodi:nodetypes="cssccsscssssssssssccssssscssccscsssssssccssssscc" />
  <path
     style="opacity:1;fill:#e6e6e6;fill-opacity:1;stroke-width:0.74952918;stroke:none"
     d="m 312.24164,360.2046 c -22.25045,-2.20595 -33.55968,-6.7841 -45.99424,-18.61912 -9.49114,-9.03352 -15.33857,-19.40029 -21.26569,-37.70144 -2.03649,-6.28803 -4.29501,-12.16426 -5.01895,-13.05829 -2.63098,-3.24912 -3.64009,-1.9685 -14.27204,18.11223 -9.20719,17.38977 -12.58452,22.38912 -20.25391,29.98117 -10.93187,10.82164 -20.40526,15.06228 -37.18015,16.64321 -19.76689,1.8629 -38.32495,-2.36935 -57.03274,-13.00659 C 90.371546,330.69913 66.329294,293.69205 55.566123,256.88442 48.09402,231.3315 43.823068,201.958 43.027486,170.64985 42.004667,130.39936 47.153369,100.65935 60.644541,68.889961 69.632701,47.724392 76.141367,40.973847 93.019998,35.311348 c 13.195592,-4.4269 20.948962,-3.905194 34.259322,2.305231 7.65315,3.57085 12.98126,7.640294 21.25007,16.230137 7.5671,7.860882 11.79416,14.628681 15.34903,24.574778 5.14405,14.392416 5.57853,24.344996 1.38162,31.649056 -3.01428,5.24588 -7.89861,7.87724 -12.48503,6.72612 -0.93532,-0.23474 -5.35591,-3.79959 -9.82354,-7.92186 -7.75828,-7.15856 -12.84389,-10.554528 -15.80584,-10.554528 -6.29897,0 -13.68225,6.007848 -18.30643,14.896108 -13.88423,26.68724 -16.772594,70.75695 -6.75905,103.12724 7.84281,25.35303 27.80348,55.19837 44.08618,65.91797 14.20335,9.35067 25.22902,8.52439 35.68858,-2.67456 8.69924,-9.31418 12.83933,-20.04967 18.32579,-47.51977 1.7242,-8.63288 3.7484,-17.10077 4.49823,-18.81754 2.20893,-5.05744 5.17735,-5.8418 12.44341,-3.28799 4.43879,1.56011 6.58705,1.27863 8.57949,-1.12413 1.40354,-1.69261 1.29099,-10.82216 -0.32295,-26.19529 -2.18319,-20.79523 -2.91721,-35.11048 -2.90164,-56.58946 0.0223,-30.714487 2.07792,-45.795407 7.79829,-57.210535 5.02379,-10.025079 13.92317,-20.107069 20.30572,-23.004068 4.15511,-1.885984 11.14698,-1.925654 15.19601,-0.08622 6.15125,2.794456 10.99903,10.882174 14.28339,23.829521 3.81983,15.058231 4.87234,28.160514 6.70388,83.454352 1.28929,38.92386 1.9232,49.90073 4.5449,78.70057 2.73789,30.07642 4.50342,40.72822 7.83213,47.25302 3.74794,7.34657 11.09215,12.56744 18.64161,13.25201 10.37455,0.94073 21.03585,-4.78978 48.42457,-26.0285 16.74376,-12.98401 27.69017,-20.30742 35.11178,-23.49056 4.77329,-2.04727 6.19262,-2.30376 12.9117,-2.33325 7.10071,-0.0312 7.70932,0.089 10.25064,2.02397 6.28248,4.78349 7.97513,18.26791 3.97525,31.66875 -2.72692,9.13605 -9.67435,22.30203 -17.01727,32.24924 -6.99759,9.47939 -25.91683,28.76314 -34.45334,35.11713 -12.07496,8.98776 -23.32075,14.10023 -37.19956,16.91136 -7.19377,1.45709 -21.67454,2.42699 -27.5453,1.84495 z"
     id="path4550"
     inkscape:connector-curvature="0" />
  <path
     style="fill:#66adff;fill-opacity:1;stroke:none;stroke-width:1px;stroke-linecap:butt;stroke-linejoin:miter;stroke-opacity:1"
     d="m 236.35559,303.25824 c 1.92176,2.15575 4.34928,0.20013 4.85077,-3.90118 0.50148,-4.1013 -0.9218,-10.34847 -2.21073,-16.83241 -1.28892,-6.48394 -2.44352,-13.20459 -3.77793,-21.04379 -1.33441,-7.83921 -2.84863,-16.79698 -4.69867,-32.11181 -1.85005,-15.31484 -4.03638,-36.99079 -6.03495,-43.79915 -1.99857,-6.80836 -3.80993,1.24908 -4.40265,8.09622 -0.59272,6.84714 0.0302,12.45353 0.64801,18.01373 0.6178,5.5602 1.25603,11.3042 2.2555,19.73729 0.99948,8.43309 2.3734,19.67427 3.8725,29.66837 1.4991,9.9941 3.12295,18.73793 4.64237,26.24412 1.51941,7.50618 2.93402,13.77286 4.85578,15.92861 z"
     id="path4556" />
</svg>
